{"title":"Forbidden.Planet.1956.BluRay.1080p.MP3.x264[10.50GB]-Agent666","uid":10937909,"size":11279049421,"categoryP":"video","categoryS":"hd___movies","magnet":"?xt=urn:btih:08f504774df37a71d82bb9bf3188ee6c61db1ad2&amp;dn=Forbidden.Planet.1956.BluRay.1080p.MP3.x264%5B10.50GB%5D-Agent666&amp;tr=udp%3A%2F%2Ftracker.openbittorrent.com%3A80&amp;tr=udp%3A%2F%2Fopen.demonii.com%3A1337&amp;tr=udp%3A%2F%2Ftracker.coppersurfer.tk%3A6969&amp;tr=udp%3A%2F%2Fexodus.desync.com%3A6969","seeders":0,"leechers":2,"uploader":"Agent666","files":-1,"time":1409455449,"description":"\nâ– â– â– â– â– â– â– â– â– â– â– â– â– â– â– â– â– â– â– â– â– â– â–  I M D B : &lt;a href=&quot;\nhttp://www.imdb.com/title/tt0049223/&quot; rel=&quot;nofollow&quot; target=&quot;_NEW&quot;&gt;\nhttp://www.imdb.com/title/tt0049223/&lt;/a&gt;\n\nForbidden Planet (1956)\n98 min  -  Action | Adventure | Family\nRating:  7.7\nLeslie Nielson (Commander Adams), Anne Francis (Altaira Morbius)\nWalter Pidgeon (Dr. Morbius), Robby The Robot (Himself\n\nStory Line:\nA starship crew goes to investigate the silence of a planet's colony only to find two survivors and a deadly secret that one of them has.\n\nâ– â– â– â– â– â– â– â– â– â– â– â– â– â– â– â– â– â– â– â– â– â– â–  V I D E O :\nFormat                                   : Matroska\nFormat version                           : Version 2\nFile size                                : 10.5 GiB\nDuration                                 : 1h 38mn\nOverall bit rate mode                    : Variable\nOverall bit rate                         : 15.3 Mbps\nEncoded date                             : UTC 2014-08-21 21:47:33\nWriting application                      : Lavf54.59.106\nWriting library                          : Lavf54.59.106\n\nVideo \n\nID                                       : 1\nFormat                                   : AVC\nFormat/Info                              : Advanced Video Codec\nFormat profile                           : &lt;a class=&quot;__cf_email__&quot; href=&quot;/cdn-cgi/l/email-protection&quot; data-cfemail=&quot;10527163757c797e75505c243e21&quot;&gt;[email&amp;#160;protected]&lt;/a&gt;&lt;script cf-hash='f9e31' type=&quot;text/javascript&quot;&gt;\n/* &lt;![CDATA[ */!function(){try{var t=&quot;currentScript&quot;in document?document.currentScript:function(){for(var t=document.getElementsByTagName(&quot;script&quot;),e=t.length;e--;)if(t[e].getAttribute(&quot;cf-hash&quot;))return t[e]}();if(t&amp;&amp;t.previousSibling){var e,r,n,i,c=t.previousSibling,a=c.getAttribute(&quot;data-cfemail&quot;);if(a){for(e=&quot;&quot;,r=parseInt(a.substr(0,2),16),n=2;a.length-n;n+=2)i=parseInt(a.substr(n,2),16)^r,e+=String.fromCharCode(i);e=document.createTextNode(e),c.parentNode.replaceChild(e,c)}}}catch(u){}}();/* ]]&gt; */&lt;/script&gt;\nFormat settings, CABAC                   : No\nFormat settings, ReFrames                : 1 frame\nFormat settings, GOP                     : M=1, N=12\nCodec ID                                 : V_MPEG4/ISO/AVC\nDuration                                 : 1h 38mn\nBit rate mode                            : Variable\nBit rate                                 : 14.7 Mbps\nMaximum bit rate                         : 30.0 Mbps\nWidth                                    : 1 920 pixels\nHeight                                   : 1 080 pixels\nDisplay aspect ratio                     : 16:9\nFrame rate mode                          : Constant\nFrame rate                               : 23.976 fps\nColor space                              : YUV\nChroma subsampling                       : 4:2:0\nBit depth                                : 8 bits\nScan type                                : Progressive\nBits/(Pixel*Frame)                       : 0.296\nStream size                              : 10.1 GiB (96%)\nDefault                                  : Yes\nForced                                   : No\n\nAudio \n\nID                                       : 2\nFormat                                   : MPEG Audio\nFormat version                           : Version 1\nFormat profile                           : Layer 3\nMode                                     : Joint stereo\nCodec ID                                 : A_MPEG/L3\nCodec ID/Hint                            : MP3\nDuration                                 : 1h 38mn\nBit rate mode                            : Constant\nBit rate                                 : 256 Kbps\nChannel(s)                               : 2 channels\nSampling rate                            : 44.1 KHz\nCompression mode                         : Lossy\nDelay relative to video                  : -25ms\nStream size                              : 180 MiB (2%)\nWriting library                          : LAME3.98.\nDefault                                  : Yes\nForced                                   : No\n\nâ– â– â– â– â– â– â– â– â– â– â– â– â– â– â– â– â– â– â– â– â– â– â– â– â– â– â– â– â– â– â– â– â– â– â– â– â– â– â– â– â– â– â– â– â– â– â– â– â– â– â– â– â– â– â– â– â– â– â– â– â– â– â– â– â– â– â– â– â– \n\nScreens\n &lt;a href=&quot;\nhttp://i.imgur.com/06bAvUn.jpg&quot; rel=&quot;nofollow&quot; target=&quot;_NEW&quot;&gt;\nhttp://i.imgur.com/06bAvUn.jpg&lt;/a&gt; &lt;a href=&quot;\nhttp://i.imgur.com/xXIYOGs.jpg&quot; rel=&quot;nofollow&quot; target=&quot;_NEW&quot;&gt;\nhttp://i.imgur.com/xXIYOGs.jpg&lt;/a&gt; &lt;a href=&quot;\nhttp://i.imgur.com/vgiJW77.jpg&quot; rel=&quot;nofollow&quot; target=&quot;_NEW&quot;&gt;\nhttp://i.imgur.com/vgiJW77.jpg&lt;/a&gt; &lt;a href=&quot;\nhttp://i.imgur.com/XQbManF.jpg&quot; rel=&quot;nofollow&quot; target=&quot;_NEW&quot;&gt;\nhttp://i.imgur.com/XQbManF.jpg&lt;/a&gt; &lt;a href=&quot;\nhttp://i.imgur.com/31UdeJy.jpg&quot; rel=&quot;nofollow&quot; target=&quot;_NEW&quot;&gt;\nhttp://i.imgur.com/31UdeJy.jpg&lt;/a&gt; &lt;a href=&quot;\nhttp://i.imgur.com/rGMgNs4.jpg&quot; rel=&quot;nofollow&quot; target=&quot;_NEW&quot;&gt;\nhttp://i.imgur.com/rGMgNs4.jpg&lt;/a&gt; &lt;a href=&quot;\nhttp://i.imgur.com/dBT0nCN.jpg&quot; rel=&quot;nofollow&quot; target=&quot;_NEW&quot;&gt;\nhttp://i.imgur.com/dBT0nCN.jpg&lt;/a&gt; &lt;a href=&quot;\nhttp://i.imgur.com/1pBTHoC.jpg&quot; rel=&quot;nofollow&quot; target=&quot;_NEW&quot;&gt;\nhttp://i.imgur.com/1pBTHoC.jpg&lt;/a&gt; &lt;a href=&quot;\nhttp://i.imgur.com/VyTUNla.jpg&quot; rel=&quot;nofollow&quot; target=&quot;_NEW&quot;&gt;\nhttp://i.imgur.com/VyTUNla.jpg&lt;/a&gt;\n\nThumbnails\n &lt;a href=&quot;\nhttp://i.imgur.com/BZqeuNo.jpg&quot; rel=&quot;nofollow&quot; target=&quot;_NEW&quot;&gt;\nhttp://i.imgur.com/BZqeuNo.jpg&lt;/a&gt;\n\nIMDB Image\n &lt;a href=&quot;\nhttp://i.imgur.com/LoYI5J9.jpg&quot; rel=&quot;nofollow&quot; target=&quot;_NEW&quot;&gt;\nhttp://i.imgur.com/LoYI5J9.jpg&lt;/a&gt;\n\nTorrent Image\n &lt;a href=&quot;\nhttp://i.imgur.com/7zNNhed.jpg&quot; rel=&quot;nofollow&quot; target=&quot;_NEW&quot;&gt;\nhttp://i.imgur.com/7zNNhed.jpg&lt;/a&gt;\n\nWikipedia \n &lt;a href=&quot;\nhttp://en.wikipedia.org/wiki/Forbidden_Planet&quot; rel=&quot;nofollow&quot; target=&quot;_NEW&quot;&gt;\nhttp://en.wikipedia.org/wiki/Forbidden_Planet&lt;/a&gt;\n\nYouTube \n\nForbidden Planet Official Trailer #1 (3:41)\n\n\n","torrent":{"xt":"urn:btih:08f504774df37a71d82bb9bf3188ee6c61db1ad2","amp;dn":"Forbidden.Planet.1956.BluRay.1080p.MP3.x264%5B10.50GB%5D-Agent666","amp;tr":["udp%3A%2F%2Ftracker.openbittorrent.com%3A80","udp%3A%2F%2Fopen.demonii.com%3A1337","udp%3A%2F%2Ftracker.coppersurfer.tk%3A6969","udp%3A%2F%2Fexodus.desync.com%3A6969"],"infoHash":"08f504774df37a71d82bb9bf3188ee6c61db1ad2","infoHashBuffer":{"type":"Buffer","data":[8,245,4,119,77,243,122,113,216,43,185,191,49,136,238,108,97,219,26,210]},"announce":[],"urlList":[]}}